<svg version="1.1" id="Layer_1" xmlns="http://www.w3.org/2000/svg" xmlns:xlink="http://www.w3.org/1999/xlink" x="0px" y="0px"
	 width="100%" viewBox="0 0 512 512" enable-background="new 0 0 512 512" xml:space="preserve">
<path fill="#000000" opacity="1.000000" stroke="none" 
	d="
M513.000000,109.531342 
	C511.440857,116.170769 512.205688,122.525818 511.552795,128.796494 
	C509.121216,152.152130 505.207428,175.068100 495.550568,196.678680 
	C491.439758,205.878113 485.268372,213.702362 478.762756,221.249374 
	C467.275238,234.575577 455.697662,247.865005 442.916901,259.955444 
	C428.826416,273.284882 414.562134,286.432495 399.647552,298.890289 
	C387.676331,308.889587 375.290344,318.319244 363.000916,327.890808 
	C361.495483,329.063293 360.256500,329.997223 360.602844,332.310486 
	C362.675232,346.151978 362.765411,359.997162 361.524048,373.975616 
	C360.179443,389.116486 357.289520,403.843231 352.265350,418.131866 
	C345.935394,436.134308 336.754791,452.543427 324.790344,467.501160 
	C310.482666,485.388306 293.088684,499.426025 273.191803,510.485229 
	C268.818268,512.916199 264.161835,512.753052 260.081573,509.434814 
	C255.878693,506.016754 254.761017,501.505646 256.191986,496.417694 
	C259.299683,485.367981 262.057495,474.282196 261.659088,462.663605 
	C260.985535,443.022003 255.570587,424.552216 248.744980,406.256866 
	C244.478134,394.820007 236.544968,386.645660 228.227585,378.475159 
	C223.355835,373.689453 218.525757,368.855927 213.829437,363.899384 
	C211.576492,361.521576 210.044739,361.365723 207.247284,363.579742 
	C184.279282,381.757599 158.492355,394.165375 129.894882,400.704132 
	C117.219528,403.602325 110.367706,396.949280 113.199890,384.342072 
	C119.643997,355.656708 132.197632,329.861572 150.198654,306.714447 
	C152.357849,303.937958 152.175354,302.444458 149.821548,300.131653 
	C140.909180,291.374359 132.253159,282.355835 123.321609,273.618652 
	C118.688293,269.086182 112.365036,267.332672 106.581490,264.975525 
	C86.929405,256.966064 66.586769,251.896301 45.152790,252.356949 
	C35.757488,252.558884 26.841589,255.265182 17.878103,257.655121 
	C12.515450,259.084961 7.987252,258.131714 4.517923,253.661133 
	C1.762731,250.110809 2.056029,243.605774 4.509034,239.021362 
	C12.019327,224.985428 21.553452,212.333862 32.769802,201.250168 
	C46.132298,188.045731 61.314785,177.154297 78.476898,168.950562 
	C96.208214,160.474747 114.805321,155.456787 134.094315,152.877426 
	C149.605988,150.803177 165.222565,151.057449 180.738007,153.329102 
	C183.362335,153.713333 184.669418,152.687653 186.111618,150.809906 
	C193.796310,140.804398 201.176346,130.563324 209.405914,120.977104 
	C215.771606,113.562050 221.730820,105.790230 228.247803,98.514771 
	C237.219498,88.498871 246.177094,78.421356 255.807159,69.055458 
	C270.794281,54.479431 285.910461,39.984936 302.499420,27.187460 
	C314.021759,18.298576 327.548889,13.549022 341.356140,9.779760 
	C353.975861,6.334685 366.937103,4.336117 379.925629,2.831438 
	C387.657959,1.935671 395.479858,1.813516 403.630737,1.171785 
	C431.687561,1.000000 459.375122,1.000000 487.813232,1.248630 
	C491.066406,3.440884 493.989868,2.536667 496.728668,2.604709 
	C506.339539,2.843481 511.170410,7.862038 511.446655,17.392380 
	C511.674927,25.269976 512.460999,33.131409 513.000000,41.000000 
	C513.000000,63.687561 513.000000,86.375122 513.000000,109.531342 
M327.713165,82.789894 
	C320.878632,75.954224 313.891388,69.262123 307.273285,62.222969 
	C303.909241,58.644909 301.239319,57.510300 297.689209,61.851089 
	C295.920441,64.013824 293.438507,65.579506 291.373505,67.515816 
	C243.680084,112.236412 203.086212,162.732910 168.636322,218.245987 
	C166.909348,221.028870 167.076965,222.709274 169.421799,225.014526 
	C180.947983,236.346176 192.401306,247.757080 203.638260,259.374146 
	C206.480759,262.312805 208.774628,262.510437 212.324860,260.845032 
	C225.014740,254.892197 238.192719,250.270386 251.933670,247.329544 
	C262.289917,245.113113 268.978210,251.773895 266.721741,262.046234 
	C263.636108,276.093170 258.863922,289.556641 252.819672,302.579681 
	C251.679947,305.035339 251.268173,306.937866 253.578125,309.206757 
	C265.584839,321.000183 277.447418,332.941162 289.286224,344.903992 
	C291.218811,346.856750 292.720276,347.253540 295.263306,345.670837 
	C353.744080,309.274323 406.876343,266.432922 453.150787,215.254700 
	C455.758392,212.370758 455.761597,210.624634 452.965759,207.924210 
	C443.976654,199.241730 435.221466,190.316635 426.399475,181.461731 
	C423.345001,178.395813 421.188782,174.881012 422.015228,170.326630 
	C422.829803,165.837555 425.517761,162.925171 429.906982,161.527206 
	C434.857666,159.950409 438.777496,161.976181 442.111053,165.228867 
	C450.579590,173.491974 458.875183,181.932098 467.275024,190.266083 
	C468.288177,191.271255 469.018799,192.763138 470.948425,192.809174 
	C474.380554,188.302643 476.144409,182.918808 478.350525,177.742432 
	C479.546570,174.936142 479.170715,172.908722 476.853027,170.713547 
	C470.805237,164.985519 465.018738,158.981750 459.125305,153.090652 
	C420.935730,114.916275 382.750549,76.737572 344.536591,38.587650 
	C343.046844,37.100403 341.685547,34.411312 339.454376,34.984787 
	C332.955078,36.655262 326.578644,38.861115 320.522125,44.085083 
	C326.288635,49.669834 331.593597,54.688484 336.766357,59.839886 
	C351.527466,74.540031 366.272003,89.257271 380.944153,104.046082 
	C386.481506,109.627480 386.916046,116.690765 382.290741,121.370232 
	C377.616394,126.099289 370.391754,125.514687 364.583801,119.735825 
	C352.418152,107.631104 340.332886,95.445595 327.713165,82.789894 
M490.081970,48.188610 
	C489.916107,43.360615 489.880951,38.523781 489.555084,33.706608 
	C489.003510,25.553024 488.315643,24.953564 480.168274,24.387981 
	C479.835999,24.364914 479.501984,24.368101 479.169434,24.347841 
	C458.536407,23.090834 437.876007,23.024702 417.227356,23.434399 
	C406.766541,23.641953 396.253082,24.061026 385.920410,26.064684 
	C379.784576,27.254513 377.638611,30.851480 379.889038,36.544727 
	C381.717194,41.169590 383.858551,45.643532 387.679535,49.172707 
	C394.246216,55.237850 400.285309,61.675671 408.139984,66.475235 
	C416.529633,71.601692 421.059143,81.005402 427.567871,88.191483 
	C443.302826,105.563934 460.246857,121.841896 476.726013,138.538864 
	C478.719208,140.558395 480.800629,142.862305 484.057465,141.533371 
	C487.183807,140.257690 487.303894,137.198883 487.669556,134.383377 
	C488.956116,124.477501 489.543823,114.521530 490.096985,104.550606 
	C491.122223,86.069664 490.917572,67.601608 490.081970,48.188610 
M69.838783,201.358093 
	C68.084030,202.626007 66.284889,203.837372 64.583275,205.172989 
	C60.317993,208.520813 58.168633,213.359665 58.941086,218.316345 
	C59.750347,223.509247 64.000740,226.646790 69.243896,228.053894 
	C72.452324,228.914948 75.588768,230.041367 78.768356,231.013214 
	C91.973328,235.049347 105.142059,239.212097 118.408943,243.033813 
	C124.075485,244.666168 127.552956,243.072495 130.644623,238.110458 
	C133.019836,234.298309 135.075714,230.288467 137.321320,226.394058 
	C145.639297,211.968704 154.205429,197.698715 163.480591,183.857803 
	C167.380066,178.038773 166.027908,175.807480 158.945236,174.985825 
	C155.078156,174.537201 151.316742,175.064560 147.507599,175.243027 
	C119.393166,176.560471 93.729172,185.212082 69.838783,201.358093 
M299.452850,380.991913 
	C302.891998,384.060486 307.700928,386.509277 307.717865,391.703796 
	C307.745605,400.223785 305.653564,408.276886 298.275177,413.683258 
	C294.799530,416.230072 291.096161,418.664093 287.147980,420.319000 
	C281.963745,422.491943 280.822266,426.459869 281.306915,431.182159 
	C282.408905,441.920074 283.726990,452.638763 285.155243,463.338806 
	C285.738892,467.711517 288.972839,469.201172 292.757538,466.915283 
	C294.717896,465.731262 296.454498,464.069275 298.033600,462.381256 
	C303.378967,456.667358 308.382568,450.691559 312.827057,444.206787 
	C331.732819,416.621918 340.159241,386.088287 338.927582,352.793060 
	C338.722748,347.255249 336.670502,346.254211 332.075287,349.181580 
	C322.390350,355.351410 312.712128,361.531921 303.056183,367.746948 
	C301.664154,368.642944 300.283356,369.626648 299.117645,370.790436 
	C295.990601,373.912354 294.824158,377.183197 299.452850,380.991913 
M203.309067,335.806976 
	C217.918274,320.996613 228.090729,303.379364 235.880646,284.262482 
	C236.767090,282.087097 237.700470,279.688171 235.784622,277.699768 
	C233.819977,275.660706 231.663193,277.417358 229.792953,278.152954 
	C206.979172,287.125580 186.969910,300.172668 170.889648,318.906189 
	C165.161850,325.579071 162.497665,332.740814 164.694931,341.807281 
	C166.940094,351.071411 178.111038,355.917511 185.811951,350.175568 
	C191.674637,345.804199 197.548782,341.430084 203.309067,335.806976 
M234.262390,334.886261 
	C232.111420,338.656921 231.184174,342.399628 233.236237,346.676636 
	C236.940979,354.398285 244.032257,356.998169 251.449387,358.811035 
	C253.944305,359.420837 256.986908,358.717468 259.004730,357.013367 
	C258.553040,348.733246 255.239456,342.375214 249.007904,337.520111 
	C247.579681,336.407257 246.442627,334.928436 245.107910,333.686432 
	C241.034744,329.896118 238.571289,330.044067 234.262390,334.886261 
M156.008133,267.356201 
	C158.025421,269.872253 161.033478,271.101776 163.457169,273.092255 
	C169.808136,278.308075 169.814651,278.300140 177.198547,273.608795 
	C174.684143,268.993317 172.167313,264.369171 169.643982,259.748535 
	C169.406662,259.313965 169.157166,258.880585 168.864639,258.482422 
	C165.668655,254.132309 158.310028,250.544037 155.777191,252.089462 
	C152.598557,254.028931 152.496155,261.150452 156.008133,267.356201 
z"/>
<path fill="#000000" opacity="1.000000" stroke="none" 
	d="
M1.000000,496.454102 
	C21.401886,475.480652 41.798946,454.956512 62.208942,434.445221 
	C67.608795,429.018524 72.923538,423.498535 78.499649,418.257904 
	C86.642914,410.604492 97.428085,413.347290 99.809921,423.624847 
	C100.924637,428.434814 98.777725,432.455963 95.521309,435.730865 
	C71.698570,459.689087 47.807987,483.579926 23.915287,507.468475 
	C22.161547,509.221893 20.223454,510.790924 18.185532,512.722839 
	C14.969407,513.000000 11.938813,513.000000 8.309954,512.702515 
	C5.474460,510.270020 3.237232,508.135010 1.000003,506.000000 
	C1.000000,502.969391 1.000000,499.938812 1.000000,496.454102 
z"/>
<path fill="#000000" opacity="1.000000" stroke="none" 
	d="
M1.000000,404.463196 
	C5.165766,401.663086 7.828278,397.723389 11.108244,394.452484 
	C32.918709,372.701874 54.870804,351.087311 76.324219,328.989136 
	C81.424850,323.735168 90.783432,323.748322 94.305748,327.150085 
	C99.279442,331.953552 99.151245,339.917419 93.456871,345.794861 
	C86.507141,352.967987 79.306389,359.897491 72.236679,366.954865 
	C55.860107,383.302795 39.504898,399.672150 23.125238,416.017029 
	C15.083675,424.041473 10.513433,424.288422 1.319030,417.130554 
	C1.000000,412.975464 1.000000,408.950897 1.000000,404.463196 
z"/>
<path fill="#000000" opacity="1.000000" stroke="none" 
	d="
M97.463181,513.000000 
	C93.817162,508.371429 89.906448,503.982758 92.674408,497.632568 
	C93.627548,495.445923 94.945801,493.611206 96.618507,491.943695 
	C120.194130,468.441498 143.746536,444.916046 167.319092,421.410767 
	C173.020813,415.725372 178.722229,414.571838 184.187866,417.905792 
	C190.800415,421.939331 191.658981,430.563324 185.978729,436.249573 
	C163.393555,458.858582 140.787186,481.446411 118.217140,504.070465 
	C115.516876,506.777191 112.991005,509.657898 110.192139,512.729004 
	C105.975456,513.000000 101.950912,513.000000 97.463181,513.000000 
z"/>
<path fill="#000000" opacity="1.000000" stroke="none" 
	d="
M275.658325,153.699463 
	C304.440369,122.332596 351.890839,126.875404 373.278290,162.750244 
	C395.807861,200.540756 369.084656,250.326889 325.170868,252.375748 
	C292.933105,253.879837 266.917633,233.370804 262.076630,201.498154 
	C259.421997,184.020645 263.663177,167.759445 275.658325,153.699463 
M348.887085,217.380600 
	C360.293701,202.756638 361.621857,187.291672 352.700256,172.979691 
	C344.604553,159.992599 329.098053,153.327835 313.942780,156.321564 
	C289.969086,161.057251 277.007660,187.874023 288.275269,209.426849 
	C300.421570,232.660461 328.869507,236.681488 348.887085,217.380600 
z"/>
<path fill="#000000" opacity="1.000000" stroke="none" 
	d="
M401.493835,131.580872 
	C412.206909,131.665253 418.613281,140.437622 414.338959,148.602829 
	C411.872284,153.315002 406.965454,155.568588 401.830872,154.347504 
	C396.367462,153.048218 392.227692,147.995453 392.165100,142.550095 
	C392.104614,137.287872 395.362579,133.309631 401.493835,131.580872 
z"/>
</svg>